HIERARCHY
ROOT Hips
{
	OFFSET	0.00	0.00	0.00
	CHANNELS 6 Xposition Yposition Zposition Zrotation Xrotation Yrotation
	JOINT LeftHip
	{
		OFFSET	 3.430000	 0.000000	 0.000000
		CHANNELS 3 Zrotation Xrotation Yrotation
		JOINT LeftKnee
		{
			OFFSET	 0.000000	-18.469999	 0.000000
			CHANNELS 3 Zrotation Xrotation Yrotation
			JOINT LeftAnkle
			{
				OFFSET	 0.000000	-17.950001	 0.000000
				CHANNELS 3 Zrotation Xrotation Yrotation
				End Site 
				{
					OFFSET	 0.000000	-3.119996	 0.000000
				}
			}
		}
	}
	JOINT RightHip
	{
		OFFSET	-3.430000	 0.000000	 0.000000
		CHANNELS 3 Zrotation Xrotation Yrotation
		JOINT RightKnee
		{
			OFFSET	 0.000000	-18.809999	 0.000000
			CHANNELS 3 Zrotation Xrotation Yrotation
			JOINT RightAnkle
			{
				OFFSET	 0.000000	-17.570000	 0.000000
				CHANNELS 3 Zrotation Xrotation Yrotation
				End Site 
				{
					OFFSET	 0.000000	-3.250000	 0.000000
				}
			}
		}
	}
	JOINT Chest
	{
		OFFSET	 0.000000	 4.570000	 0.000000
		CHANNELS 3 Zrotation Xrotation Yrotation
		JOINT LeftCollar
		{
			OFFSET	 1.060000	 15.330000	 1.760000
			CHANNELS 3 Zrotation Xrotation Yrotation
			JOINT LeftShoulder
			{
				OFFSET	 5.810000	 0.000000	 0.000000
				CHANNELS 3 Zrotation Xrotation Yrotation
				JOINT LeftElbow
				{
					OFFSET	 0.000000	-12.080000	 0.000000
					CHANNELS 3 Zrotation Xrotation Yrotation
					JOINT LeftWrist
					{
						OFFSET	 0.000000	-9.820000	 0.000000
						CHANNELS 3 Zrotation Xrotation Yrotation
						End Site 
						{
							OFFSET	 0.000000	-7.369996	 0.000000
						}
					}
				}
			}
		}
		JOINT RightCollar
		{
			OFFSET	-1.060000	 15.330000	 1.760000
			CHANNELS 3 Zrotation Xrotation Yrotation
			JOINT RightShoulder
			{
				OFFSET	-6.060000	 0.000000	 0.000000
				CHANNELS 3 Zrotation Xrotation Yrotation
				JOINT RightElbow
				{
					OFFSET	 0.000000	-11.900000	 0.000000
					CHANNELS 3 Zrotation Xrotation Yrotation
					JOINT RightWrist
					{
						OFFSET	 0.000000	-9.520000	 0.000000
						CHANNELS 3 Zrotation Xrotation Yrotation
						End Site 
						{
							OFFSET	 0.000000	-7.140012	 0.000000
						}
					}
				}
			}
		}
		JOINT Neck
		{
			OFFSET	 0.000000	 17.620001	 0.000000
			CHANNELS 3 Zrotation Xrotation Yrotation
			JOINT Head
			{
				OFFSET	 0.000000	 5.190000	 0.000000
				CHANNELS 3 Zrotation Xrotation Yrotation
				End Site 
				{
					OFFSET	 0.000000	 4.140008	 0.000000
				}
			}
		}
	}
}

MOTION
Frames: 9
Frame Time: 0.033333
-50.5766 1.8985 -32.147 -0.0437166 1.848 77.9692 4.51452 -7.36115 13.2966 3.59301 8.00096 -4.25631 -12.4939 5.33479 -0.0932037 5.06296 -0.398943 -20.674 -7.72866 4.97954 7.6647 -2.92717 -8.70817 0.155391 1.67016 5.13131 4.92248 0 0 0 4.22786 -5.63901 0.581715 -10.4135 -13.1885 -6.18361 19.4202 -7.978 -29.216 0 0 0 -8.34455 -7.05853 -3.26588 3.9894 -9.40407 5.81299 -8.0731 -16.5025 23.9972 0 0 0 -4.66571 10.2195 23.1938 
-50.6391 1.902 -32.0811 -0.178306 1.87582 78.1367 4.65245 -7.96589 13.2187 3.63502 8.47672 -4.35466 -12.5719 5.34129 -0.091899 5.18139 -0.618105 -20.8013 -7.69473 4.88705 7.63091 -3.07405 -8.57367 0.16201 1.67656 5.16942 4.90299 0 0 0 4.23164 -5.75831 0.578419 -10.458 -13.2292 -6.25112 19.4626 -8.00489 -29.1437 0 0 0 -8.36633 -7.11138 -3.21909 3.98952 -9.38314 5.83919 -8.06149 -16.4675 24.0771 0 0 0 -4.66529 10.1525 23.0068 
-50.6953 1.9044 -32.0225 -0.286123 1.90345 78.2791 4.79571 -8.5916 13.0858 3.70472 8.94817 -4.47558 -12.7076 5.3688 0.0165727 5.27793 -0.811099 -20.8973 -7.66382 4.81792 7.6253 -3.21348 -8.45248 0.13345 1.68733 5.22635 4.91137 0 0 0 4.19918 -5.85627 0.613301 -10.4852 -13.2631 -6.28458 19.501 -8.05317 -29.1057 0 0 0 -8.42033 -7.14371 -3.16368 3.99292 -9.36164 5.8512 -8.06364 -16.4377 24.1165 0 0 0 -4.67156 10.101 22.8495 
-50.738 1.906 -31.9756 -0.366304 1.93488 78.4035 4.91568 -9.1154 12.9407 3.77163 9.36387 -4.61604 -12.8655 5.35558 0.154675 5.34508 -0.95609 -20.9859 -7.62711 4.75389 7.61616 -3.33693 -8.35958 0.115325 1.67865 5.26582 4.93518 0 0 0 4.18008 -5.91146 0.613462 -10.5359 -13.2888 -6.26418 19.5806 -8.10473 -29.0406 0 0 0 -8.46638 -7.14338 -3.13859 3.98452 -9.34126 5.85643 -8.0664 -16.4214 24.1433 0 0 0 -4.66768 10.0678 22.7073 
-50.8334 1.911 -31.8726 -0.533553 1.96786 78.6561 5.14192 -10.0556 12.7266 3.90637 10.1413 -4.85798 -13.3169 5.13664 0.276711 5.52335 -1.28762 -21.1407 -7.5656 4.64751 7.59873 -3.59326 -8.15629 0.0651591 1.6861 5.37527 4.95364 0 0 0 4.15799 -6.03981 0.654734 -10.6109 -13.3708 -6.26744 19.668 -8.21848 -28.9788 0 0 0 -8.53936 -7.21205 -3.09844 3.98002 -9.3085 5.89388 -8.05461 -16.3947 24.235 0 0 0 -4.64875 9.97819 22.423 
-50.9163 1.9186 -31.7797 -0.673885 2.02477 78.8952 5.3375 -10.9261 12.5006 3.98778 10.9342 -5.14413 -13.8765 4.79417 0.203211 5.64644 -1.57421 -21.3032 -7.51991 4.56548 7.58411 -3.8052 -8.0173 0.0279734 1.6745 5.43214 4.99238 0 0 0 4.11093 -6.07272 0.721449 -10.6961 -13.4374 -6.28173 19.7872 -8.35396 -28.8969 0 0 0 -8.64575 -7.21208 -3.06497 3.97786 -9.27495 5.92554 -8.0424 -16.3605 24.2986 0 0 0 -4.64657 9.93378 22.1545 
-50.9841 1.9211 -31.7094 -0.741344 2.09073 79.1087 5.37318 -11.2355 12.2248 4.04825 11.7622 -5.53528 -14.4389 3.97637 0.206397 5.68758 -1.737 -21.4438 -7.48233 4.48178 7.55804 -3.93989 -7.9088 -0.00353361 1.64583 5.47135 4.99712 0 0 0 4.04694 -6.00828 0.825736 -10.754 -13.484 -6.25148 19.8938 -8.51357 -28.83 0 0 0 -8.76669 -7.16268 -3.01354 3.94741 -9.22548 5.95095 -8.04943 -16.3459 24.2809 0 0 0 -4.62306 9.93133 21.9792 
-51.0419 1.9261 -31.6541 -0.709756 2.16815 79.2789 5.28045 -10.7944 11.9441 4.02415 12.3602 -5.89603 -15.0153 2.9413 0.065286 5.66295 -1.78682 -21.5265 -7.46555 4.47016 7.57016 -4.03525 -7.85579 -0.0954962 1.57876 5.52706 5.03035 0 0 0 3.97502 -5.87116 0.91319 -10.7916 -13.5021 -6.19537 19.9924 -8.68479 -28.7889 0 0 0 -8.90551 -7.06864 -3.02431 3.91649 -9.17834 5.94985 -8.12284 -16.3468 24.2205 0 0 0 -4.57914 9.9686 21.8365 
-51.087 1.9286 -31.6089 -0.63424 2.2458 79.4163 5.04505 -9.73786 11.623 3.99456 13.1824 -6.3092 -15.5822 1.7893 -0.0705344 5.61937 -1.79594 -21.5784 -7.4717 4.51273 7.62267 -4.10896 -7.83903 -0.242365 1.49711 5.58108 5.10908 0 0 0 3.88242 -5.67465 0.93458 -10.8243 -13.5351 -6.13018 20.1818 -8.84314 -28.5867 0 0 0 -9.13778 -6.96555 -3.13677 3.89435 -9.14907 5.9453 -8.22988 -16.3782 24.143 0 0 0 -4.53331 10.0432 21.6852 
